<?xml version="1.0" standalone="no"?>
<!DOCTYPE svg PUBLIC "-//W3C//DTD SVG 20010904//EN"
 "http://www.w3.org/TR/2001/REC-SVG-20010904/DTD/svg10.dtd">
<svg version="1.0" xmlns="http://www.w3.org/2000/svg"
 width="532.000000pt" height="533.000000pt" viewBox="0 0 532.000000 533.000000"
 preserveAspectRatio="xMidYMid meet">

<g transform="translate(0.000000,533.000000) scale(0.100000,-0.100000)"
fill="#000000" stroke="none">
<path d="M1251 4790 c-77 -50 -119 -85 -115 -92 4 -6 3 -8 -3 -5 -14 9 -55
-22 -47 -35 4 -6 2 -8 -4 -4 -13 8 -118 -80 -190 -159 -29 -32 -51 -59 -50
-60 2 -2 20 -14 41 -28 l39 -26 36 19 c20 11 47 20 59 20 24 0 52 39 86 123
38 92 45 99 107 100 35 1 60 8 68 17 8 8 11 9 7 3 -4 -9 1 -13 15 -13 13 0 19
4 14 12 -5 7 -3 8 5 3 7 -4 22 2 37 16 25 23 33 46 12 33 -7 -4 -8 -3 -4 4 13
21 25 13 44 -32 11 -24 41 -65 67 -92 46 -47 48 -48 57 -27 11 24 38 38 47 26
10 -13 31 -14 31 0 0 8 4 7 10 -3 5 -8 10 -19 10 -25 0 -5 -4 -5 -8 2 -6 9
-11 7 -20 -8 -11 -17 -10 -20 2 -17 8 2 15 -1 15 -7 1 -5 -9 -9 -21 -9 -13 0
-23 4 -23 9 0 6 -5 18 -11 29 -8 13 -13 15 -19 7 -4 -7 0 -20 9 -30 9 -10 16
-35 16 -56 0 -31 -7 -44 -39 -74 -21 -20 -42 -47 -46 -61 -8 -29 -93 -120
-112 -120 -8 0 -13 -14 -13 -38 0 -37 0 -37 43 -38 125 -2 175 -58 193 -214 3
-33 10 -57 15 -54 5 3 6 -2 3 -10 -8 -21 16 -21 55 2 66 37 73 119 17 201 -30
43 -34 93 -11 148 23 55 19 97 -16 150 -30 47 -30 49 -24 139 6 80 4 96 -14
131 -21 42 -83 103 -105 103 -7 0 -27 18 -45 41 -20 24 -39 38 -47 35 -8 -3
-13 -1 -11 5 1 6 -8 17 -19 25 -20 14 -30 9 -143 -66z m92 23 c-17 -14 -17
-14 0 -9 11 3 16 2 12 -4 -4 -6 -12 -10 -18 -9 -30 4 -42 -3 -22 -11 13 -6 15
-9 5 -9 -8 0 -24 7 -35 15 -14 11 -15 15 -5 14 26 -4 44 0 37 7 -11 10 13 32
29 26 12 -4 12 -8 -3 -20z m86 -6 c9 3 12 1 6 -4 -5 -4 -12 -11 -15 -15 -3 -4
-12 3 -19 15 -9 15 -10 18 -1 10 7 -6 20 -9 29 -6z m-52 -17 c-1 -11 -5 -20
-9 -20 -10 0 -10 4 -2 24 8 22 13 20 11 -4z m19 -29 c-7 -11 19 -33 28 -24 4
4 4 0 1 -10 -6 -15 -9 -14 -25 6 -16 19 -18 37 -4 37 3 0 3 -4 0 -9z m78 0 c3
-5 -1 -11 -9 -14 -9 -4 -12 -1 -8 9 6 16 10 17 17 5z m-244 -16 c-7 -8 -20
-15 -28 -15 -13 0 -12 3 4 15 25 19 40 19 24 0z m40 12 c0 -2 -10 -12 -22 -23
l-23 -19 19 23 c18 21 26 27 26 19z m228 -19 c-2 -7 -7 -16 -12 -19 -4 -4 -3
-16 4 -29 18 -35 7 -31 -17 6 -16 25 -18 31 -5 27 9 -4 13 -2 9 4 -6 9 0 16
21 22 1 1 1 -5 0 -11z m-225 -13 c-3 -9 -8 -14 -10 -11 -3 3 -2 9 2 15 9 16
15 13 8 -4z m267 -7 c0 -5 4 -7 9 -4 10 7 37 -22 28 -30 -7 -7 -66 36 -66 48
-1 4 6 5 14 2 8 -4 15 -10 15 -16z m-320 -2 c0 -9 -30 -14 -35 -6 -4 6 3 10
14 10 12 0 21 -2 21 -4z m236 -35 c-4 -6 -13 -11 -19 -11 -8 0 -7 4 2 9 13 8
13 12 1 28 -13 17 -13 17 4 1 10 -9 15 -21 12 -27z m-280 3 c-3 -8 -1 -14 4
-14 6 0 10 5 10 12 0 6 3 8 6 5 4 -4 1 -13 -6 -21 -9 -12 -15 -13 -24 -3 -17
17 -16 46 1 40 8 -3 12 -12 9 -19z m84 16 c13 -8 13 -10 -2 -10 -9 0 -20 5
-23 10 -8 13 5 13 25 0z m258 -15 c-3 -3 -9 2 -12 12 -6 14 -5 15 5 6 7 -7 10
-15 7 -18z m-383 -15 c3 -5 1 -10 -4 -10 -6 0 -11 5 -11 10 0 6 2 10 4 10 3 0
8 -4 11 -10z m349 -16 c10 -26 7 -29 -9 -8 -10 13 -14 15 -15 5 0 -8 -3 -12
-6 -8 -7 7 4 27 16 27 4 0 11 -7 14 -16z m-324 1 c0 -2 -10 -9 -22 -15 -22
-11 -22 -10 -4 4 21 17 26 19 26 11z m-64 -50 c-8 -7 -13 -15 -9 -18 3 -4 1
-7 -5 -7 -14 0 -14 3 -7 23 3 7 13 14 22 14 14 0 14 -1 -1 -12z m419 -4 c-1
-8 -8 -17 -16 -19 -11 -3 -11 -1 1 7 14 10 7 16 -13 12 -5 -1 -6 2 -3 7 9 15
34 9 31 -7z m-482 -39 c23 -24 24 -28 8 -28 -11 0 -17 5 -14 14 3 7 0 12 -8
10 -7 -2 -15 5 -17 15 -5 23 0 22 31 -11z m-47 -7 c0 -13 -2 -22 -4 -20 -3 2
-14 -2 -26 -10 -11 -8 -25 -15 -31 -15 -5 0 4 9 20 20 17 11 31 24 31 30 4 30
10 27 10 -5z m74 -55 c6 -11 7 -20 2 -20 -6 0 -12 9 -15 20 -3 11 -3 20 -1 20
2 0 8 -9 14 -20z m-116 -16 c24 -9 -4 -33 -34 -28 -25 4 -25 4 -5 -12 l20 -17
-20 8 c-11 4 -26 8 -32 8 -20 1 -16 6 20 27 37 23 31 22 51 14z m658 -48 c7 4
8 2 4 -4 -4 -6 -13 -9 -21 -6 -8 4 -12 11 -8 17 5 8 8 7 11 -1 2 -7 9 -9 14
-6z m-702 -16 c8 -5 11 -10 5 -10 -5 0 -17 5 -25 10 -8 5 -10 10 -5 10 6 0 17
-5 25 -10z m39 -21 c-16 -10 -23 -4 -14 10 3 6 11 8 17 5 6 -4 5 -9 -3 -15z
m619 -3 c-25 -18 -10 -28 16 -11 12 8 27 11 34 6 11 -7 10 -10 -3 -15 -9 -3
-13 -11 -9 -17 4 -8 3 -9 -5 -5 -6 4 -9 12 -6 17 4 5 2 9 -4 9 -20 0 -23 -22
-5 -36 17 -12 17 -13 2 -8 -23 8 -24 -12 -1 -20 9 -4 20 -1 25 6 5 9 8 10 8 1
0 -14 -12 -23 -39 -28 -15 -3 -18 1 -14 12 4 11 3 14 -6 9 -6 -4 -19 -2 -28 6
-14 11 -15 10 -9 -12 6 -21 5 -22 -4 -7 -6 9 -8 22 -5 27 3 6 0 10 -7 11 -10
0 -10 2 0 6 6 2 12 13 12 23 0 11 10 20 25 24 14 4 25 12 25 18 0 6 3 8 7 4 5
-4 0 -13 -9 -20z m67 14 c3 -5 1 -10 -4 -10 -6 0 -11 5 -11 10 0 6 2 10 4 10
3 0 8 -4 11 -10z m30 -60 c10 -11 16 -20 13 -20 -3 0 -15 9 -28 20 -13 11 -19
20 -13 20 5 0 18 -9 28 -20z m0 -30 c3 -5 1 -10 -4 -10 -6 0 -11 5 -11 10 0 6
2 10 4 10 3 0 8 -4 11 -10z m-15 -25 c14 -19 14 -19 -2 -6 -10 7 -18 18 -18
24 0 6 1 8 3 6 1 -2 9 -13 17 -24z m6 -28 c8 3 14 3 14 0 0 -14 -30 -14 -41 1
-11 14 -11 15 0 5 7 -6 20 -9 27 -6z m-209 -29 c-3 -8 -6 -5 -6 6 -1 11 2 17
5 13 3 -3 4 -12 1 -19z m233 2 c0 -5 -8 -10 -17 -10 -15 0 -16 2 -3 10 19 12
20 12 20 0z m-250 -10 c0 -5 -2 -10 -4 -10 -3 0 -8 5 -11 10 -3 6 -1 10 4 10
6 0 11 -4 11 -10z m231 -15 c5 4 6 -2 2 -11 -4 -12 -8 -14 -11 -6 -3 10 -7 10
-18 1 -10 -8 -14 -8 -14 0 0 6 4 11 10 11 5 0 7 8 4 18 -5 16 -5 16 6 -1 6 -9
15 -15 21 -12z m-182 -24 c-6 -2 -18 4 -27 13 -15 15 -15 15 10 4 15 -7 23
-15 17 -17z m48 -23 c0 -13 -1 -17 -4 -10 -3 6 -12 12 -21 12 -15 0 -15 2 -2
10 22 14 26 12 27 -12z m120 -10 c-3 -8 -6 -5 -6 6 -1 11 2 17 5 13 3 -3 4
-12 1 -19z m38 -88 c3 -6 -1 -7 -9 -4 -18 7 -21 14 -7 14 6 0 13 -4 16 -10z
m-65 -16 c0 -8 -19 -13 -24 -6 -3 5 1 9 9 9 8 0 15 -2 15 -3z m83 -35 c-9 -9
-12 -7 -10 9 1 14 5 18 11 12 7 -7 6 -14 -1 -21z m13 -54 c2 -14 1 -24 -4 -21
-5 3 -9 17 -9 31 0 32 6 27 13 -10z m-89 -17 c-3 -8 -6 -5 -6 6 -1 11 2 17 5
13 3 -3 4 -12 1 -19z m93 -23 c0 -2 -6 -5 -13 -8 -8 -3 -14 1 -14 8 0 7 6 11
14 8 7 -3 13 -6 13 -8z"/>
<path d="M915 4470 c-3 -6 1 -7 9 -4 18 7 21 14 7 14 -6 0 -13 -4 -16 -10z"/>
<path d="M1528 4356 c-13 -10 -15 -15 -6 -24 16 -16 25 -15 31 1 9 23 -6 37
-25 23z"/>
<path d="M3397 4690 c-72 -13 -151 -55 -196 -106 -33 -38 -48 -70 -85 -187
-52 -163 -65 -218 -66 -267 0 -32 4 -37 53 -63 56 -29 120 -101 132 -148 7
-26 35 -39 86 -39 31 0 22 33 -16 57 -38 25 -105 118 -105 145 0 10 -13 24
-30 33 -51 26 -78 109 -47 147 6 9 30 21 52 28 68 22 111 48 174 106 34 31 61
53 61 50 0 -4 -11 -24 -25 -46 l-26 -41 28 7 c99 23 149 50 214 111 l36 34 12
-43 c28 -93 91 -178 133 -178 23 0 48 -38 48 -73 0 -40 -26 -84 -59 -101 -16
-9 -32 -27 -35 -42 -11 -41 -63 -112 -102 -137 -18 -12 -34 -30 -34 -40 0 -16
5 -18 43 -12 118 19 197 72 218 148 17 63 5 168 -34 292 -20 61 -42 135 -51
165 -29 104 -116 176 -241 199 -65 12 -69 12 -138 1z"/>
<path d="M2025 4677 c-56 -19 -77 -31 -141 -83 -45 -37 -62 -45 -85 -42 -26 4
-29 2 -29 -23 0 -18 7 -32 20 -39 16 -9 18 -15 10 -36 -6 -14 -10 -63 -10
-109 0 -67 3 -83 14 -79 16 6 45 -21 47 -44 1 -9 5 22 9 70 4 47 12 100 19
116 11 27 17 30 81 35 48 4 103 20 184 51 63 25 122 46 129 46 42 0 74 -89 84
-234 4 -65 9 -92 14 -78 8 20 33 39 54 41 28 2 10 187 -23 240 -30 50 -107
123 -155 147 -60 31 -163 40 -222 21z"/>
<path d="M1569 4573 c14 -28 17 -28 25 -6 4 10 4 14 0 10 -4 -4 -14 -1 -22 6
-13 10 -14 9 -3 -10z"/>
<path d="M4420 4530 c0 -5 7 -10 16 -10 8 0 12 5 9 10 -3 6 -10 10 -16 10 -5
0 -9 -4 -9 -10z"/>
<path d="M4480 4480 c0 -25 25 -59 46 -63 13 -2 21 0 18 4 -3 5 -11 9 -19 9
-7 0 -18 14 -24 30 -10 29 -21 40 -21 20z"/>
<path d="M986 4314 c-3 -8 1 -27 9 -42 12 -24 14 -24 15 -6 0 11 -6 26 -12 33
-11 10 -10 11 5 5 13 -5 16 -2 11 10 -8 20 -20 21 -28 0z"/>
<path d="M4355 4188 c-40 -43 -40 -43 -3 -9 20 18 41 30 47 27 7 -4 8 -1 5 8
-3 9 -7 16 -8 16 -1 0 -20 -19 -41 -42z"/>
<path d="M4389 4188 c-4 -15 -9 -51 -6 -47 15 16 26 49 17 49 -5 0 -10 -1 -11
-2z"/>
<path d="M4425 4130 c-16 -17 -26 -30 -22 -30 9 0 59 51 54 56 -2 2 -16 -10
-32 -26z"/>
<path d="M1455 4113 c4 -10 7 -27 7 -38 -1 -18 0 -19 9 -2 12 20 3 57 -13 57
-6 0 -7 -7 -3 -17z"/>
<path d="M4135 4100 c-3 -5 -1 -10 4 -10 6 0 11 5 11 10 0 6 -2 10 -4 10 -3 0
-8 -4 -11 -10z"/>
<path d="M1440 4082 c0 -10 -13 -31 -29 -46 -16 -16 -29 -36 -29 -45 0 -9 -1
-76 -2 -149 -2 -130 -2 -133 -23 -130 -12 1 -28 -1 -35 -6 -8 -5 -19 -3 -25 3
-9 9 -8 11 3 7 31 -11 68 41 47 64 -9 10 -9 11 3 5 12 -6 12 -5 3 5 -14 15
-36 4 -26 -13 4 -7 0 -6 -10 2 -9 7 -17 19 -16 25 0 7 2 7 6 -1 3 -10 9 -10
24 0 16 10 19 24 19 89 0 48 -4 78 -11 78 -5 0 -7 -5 -3 -12 5 -7 3 -8 -6 -3
-10 6 -9 11 6 23 18 14 18 14 1 8 -10 -3 -23 -6 -28 -6 -5 0 -8 -5 -6 -11 1
-6 -4 -14 -11 -16 -8 -3 -10 1 -6 11 11 28 -12 17 -24 -11 -7 -17 -9 -19 -6
-6 6 28 -16 42 -23 14 -3 -12 -9 -21 -13 -21 -8 0 -21 -29 -26 -60 -2 -8 -8
-16 -13 -18 -15 -5 -14 -49 2 -55 10 -4 10 -6 0 -6 -17 -1 -16 -46 1 -80 8
-15 26 -33 41 -39 27 -12 50 -8 40 8 -3 5 -1 11 4 14 17 11 20 -8 5 -29 -8
-11 -25 -20 -37 -20 -13 -1 -29 -5 -37 -10 -9 -5 -11 -4 -6 4 8 13 -12 44 -23
36 -4 -2 -8 1 -9 8 -20 132 -20 131 -26 55 -2 -21 1 -38 6 -38 5 0 7 -4 3 -9
-3 -6 5 -20 17 -32 13 -12 17 -19 11 -15 -7 4 -13 3 -13 -3 0 -5 7 -14 15 -19
14 -7 13 -10 -2 -24 -10 -9 -31 -28 -46 -42 -34 -31 -37 -32 -30 -6 3 11 10
17 16 13 6 -4 8 0 4 10 -3 9 -1 19 5 23 6 4 8 3 4 -4 -7 -12 20 -10 31 3 4 4
2 5 -4 1 -7 -4 -13 -2 -13 3 0 6 -11 11 -25 11 -15 0 -39 7 -54 15 l-28 14 -6
-82 c-5 -65 -4 -83 8 -90 18 -9 10 -63 -13 -90 -46 -52 -46 -361 0 -414 8 -10
18 -30 22 -45 12 -54 61 -123 99 -141 20 -10 37 -25 37 -33 0 -9 4 -12 10 -9
5 3 7 0 4 -9 -3 -8 3 -29 12 -48 10 -18 18 -35 19 -38 1 -17 93 -101 131 -121
39 -21 44 -28 44 -59 l0 -35 20 25 c12 15 6 -4 -14 -45 -19 -38 -40 -90 -47
-115 -17 -59 -16 -229 1 -305 l13 -60 9 40 c31 141 43 185 60 225 10 25 16 34
13 20 -3 -14 -8 -59 -11 -101 l-7 -76 64 -12 c116 -21 251 -31 430 -31 256 0
484 26 496 56 3 7 0 45 -6 85 -7 39 -10 74 -7 76 8 8 46 -128 58 -204 6 -40
13 -73 17 -73 11 0 31 135 31 209 0 158 -49 278 -154 379 -109 105 -259 161
-428 162 l-78 0 0 49 c0 53 28 101 59 101 13 0 21 17 34 73 17 72 70 190 105
236 l19 24 57 -27 c90 -43 386 -95 386 -69 0 5 -20 29 -45 53 -24 24 -43 45
-42 47 2 1 46 -19 98 -46 52 -26 109 -53 127 -59 39 -13 63 -61 83 -160 l12
-64 13 32 c20 48 18 203 -4 267 -84 241 -373 351 -630 237 l-54 -24 -19 23
c-10 12 -18 32 -19 44 0 12 -12 37 -28 55 -15 18 -34 45 -41 60 -8 15 -27 33
-43 40 -15 7 -28 18 -28 24 0 15 -30 40 -60 49 -14 4 -35 16 -47 27 -12 11
-34 21 -50 22 -15 2 -43 11 -62 20 -18 10 -43 15 -56 12 -12 -3 -37 -1 -54 5
-22 8 -40 8 -62 0 -20 -7 -37 -7 -48 -1 -10 6 -12 9 -3 10 7 0 10 6 7 13 -4 6
0 4 8 -6 11 -13 17 -15 22 -6 4 6 1 15 -6 20 -10 6 -11 9 -1 9 6 0 12 5 12 10
0 7 -7 7 -22 0 -22 -11 -22 -10 -4 4 13 11 19 27 18 56 0 22 -1 81 -1 131 -1
69 -4 88 -13 82 -26 -15 -38 -12 -28 7 7 13 7 21 0 25 -5 3 -10 -2 -10 -13z
m-24 -78 c-3 -15 -8 -29 -12 -33 -4 -3 -4 2 -1 12 4 9 2 17 -4 17 -5 0 -4 7 3
15 18 20 19 19 14 -11z m54 -34 c0 -5 -2 -10 -4 -10 -3 0 -8 5 -11 10 -3 6 -1
10 4 10 6 0 11 -4 11 -10z m-135 -40 c3 -6 -1 -7 -9 -4 -18 7 -21 14 -7 14 6
0 13 -4 16 -10z m-80 -20 c3 -5 1 -10 -4 -10 -6 0 -11 5 -11 10 0 6 2 10 4 10
3 0 8 -4 11 -10z m142 -37 c-3 -10 -5 -4 -5 12 0 17 2 24 5 18 2 -7 2 -21 0
-30z m28 -72 c-3 -5 1 -16 9 -24 13 -13 12 -14 -11 -14 -14 0 -20 3 -14 7 7 4
11 11 10 16 -2 14 0 24 7 24 3 0 3 -4 -1 -9z m-85 -51 c0 -5 -2 -10 -4 -10 -3
0 -8 5 -11 10 -3 6 -1 10 4 10 6 0 11 -4 11 -10z m100 -4 c0 -2 -11 -6 -25 -8
-14 -3 -25 -1 -25 3 0 5 11 9 25 9 14 0 25 -2 25 -4z m-175 -26 c-3 -5 -16
-15 -28 -21 -19 -9 -19 -8 3 10 28 23 34 26 25 11z m-193 -109 c-11 -7 -11 -9
1 -14 13 -5 15 -24 7 -47 -1 -3 -2 -7 -2 -10 0 -4 -10 -6 -23 -6 -13 0 -21 4
-19 8 3 5 10 5 16 2 6 -4 8 1 3 15 -5 16 -2 21 12 21 15 1 14 3 -6 14 -18 10
-20 15 -10 19 22 9 35 8 21 -2z m530 -61 c131 -19 241 -87 291 -179 16 -28 26
-51 24 -51 -2 0 -21 16 -42 35 -81 77 -200 117 -345 117 -145 0 -246 -34 -344
-115 l-50 -41 29 53 c59 108 191 178 355 190 8 0 45 -4 82 -9z m-522 -50 c-37
-28 -50 -24 -15 4 17 13 32 22 35 19 3 -2 -6 -13 -20 -23z m197 -466 c-3 -3
-12 -4 -19 -1 -8 3 -5 6 6 6 11 1 17 -2 13 -5z m190 -20 c-3 -3 -12 -4 -19 -1
-8 3 -5 6 6 6 11 1 17 -2 13 -5z m-327 -8 c0 -2 -7 -7 -16 -10 -8 -3 -12 -2
-9 4 6 10 25 14 25 6z m397 -2 c-3 -3 -12 -4 -19 -1 -8 3 -5 6 6 6 11 1 17 -2
13 -5z m143 -298 c0 -1 -5 -17 -11 -34 -13 -38 -88 -84 -136 -84 -55 0 -133
65 -133 111 0 7 45 11 140 11 77 0 140 -2 140 -4z m-166 -155 c-10 -10 -21
-16 -24 -14 -3 3 4 11 14 19 28 20 33 17 10 -5z m-46 -41 c-7 -11 -17 -20 -22
-20 -5 0 -1 9 9 20 10 11 20 20 22 20 2 0 -2 -9 -9 -20z"/>
<path d="M4106 4082 c-3 -5 1 -9 9 -9 8 0 12 4 9 9 -3 4 -7 8 -9 8 -2 0 -6 -4
-9 -8z"/>
<path d="M4059 4043 c-13 -16 -12 -17 4 -4 16 13 21 21 13 21 -2 0 -10 -8 -17
-17z"/>
<path d="M4682 4046 c-13 -7 -19 -16 -15 -20 11 -11 10 -165 -1 -159 -4 3 -5
-14 -1 -38 3 -24 9 -61 12 -81 3 -21 9 -38 14 -38 5 0 8 -10 5 -22 -2 -13 0
-31 3 -42 5 -12 14 19 28 85 16 86 19 120 12 193 -5 56 -5 94 1 101 16 19 -31
36 -58 21z m15 -53 c-3 -10 -5 -2 -5 17 0 19 2 27 5 18 2 -10 2 -26 0 -35z m3
-83 c0 -5 -2 -10 -4 -10 -3 0 -8 5 -11 10 -3 6 -1 10 4 10 6 0 11 -4 11 -10z
m-3 -42 c-3 -8 -6 -5 -6 6 -1 11 2 17 5 13 3 -3 4 -12 1 -19z m-2 -29 c11 -16
1 -19 -13 -3 -7 8 -8 14 -3 14 5 0 13 -5 16 -11z"/>
<path d="M4791 4024 c0 -11 3 -14 6 -6 3 7 2 16 -1 19 -3 4 -6 -2 -5 -13z"/>
<path d="M4611 3994 c0 -11 3 -14 6 -6 3 7 2 16 -1 19 -3 4 -6 -2 -5 -13z"/>
<path d="M3957 3923 c-4 -3 -7 -11 -7 -17 0 -6 5 -5 12 2 6 6 9 14 7 17 -3 3
-9 2 -12 -2z"/>
<path d="M4765 3889 c-4 -6 -5 -12 -2 -15 2 -3 7 2 10 11 7 17 1 20 -8 4z"/>
<path d="M4015 3830 c-3 -5 -1 -10 4 -10 6 0 11 5 11 10 0 6 -2 10 -4 10 -3 0
-8 -4 -11 -10z"/>
<path d="M3916 3735 c-3 -9 -6 -26 -5 -38 1 -14 4 -9 9 13 9 37 7 52 -4 25z"/>
<path d="M4562 3695 c0 -16 2 -22 5 -12 2 9 2 23 0 30 -3 6 -5 -1 -5 -18z"/>
<path d="M281 3580 l-41 -110 17 -58 c13 -43 17 -112 21 -292 l4 -236 -50 -32
c-60 -39 -109 -92 -119 -130 -6 -26 12 -352 24 -420 5 -31 7 -33 37 -27 69 14
327 105 417 148 116 53 226 123 259 163 l24 29 47 -95 c26 -52 68 -121 94
-153 49 -62 125 -117 161 -117 33 0 72 -37 84 -81 25 -91 -34 -212 -116 -239
-27 -9 -36 -20 -50 -63 -40 -120 -147 -248 -255 -302 l-49 -25 0 -75 c0 -40 4
-77 10 -80 5 -3 10 -15 10 -25 0 -17 7 -19 65 -16 36 2 68 -1 71 -5 3 -5 -27
-9 -65 -9 l-71 0 0 -47 c0 -36 -3 -44 -10 -33 -8 11 -9 5 -6 -23 2 -21 -1 -40
-7 -44 -6 -4 -7 -1 -2 8 8 12 6 12 -8 0 -9 -7 -17 -20 -17 -27 0 -8 -12 -17
-26 -20 -16 -4 -22 -9 -14 -14 8 -5 7 -9 -4 -13 -9 -4 -16 -2 -16 4 0 6 -5 7
-10 4 -6 -4 -8 -10 -5 -15 3 -5 1 -11 -4 -14 -5 -4 -12 -2 -16 4 -3 5 -12 10
-18 10 -7 -1 -1 -10 12 -21 13 -11 30 -18 37 -15 7 3 16 1 19 -4 6 -10 -9 -15
-30 -10 -5 1 -1 -8 9 -19 11 -12 21 -19 24 -16 3 2 14 -1 26 -8 11 -6 32 -11
46 -12 17 0 26 -6 28 -20 1 -11 17 -28 33 -38 25 -14 29 -20 19 -32 -6 -7 -17
-12 -25 -9 -18 7 -30 -15 -16 -29 9 -9 11 -7 6 8 -6 20 -6 20 9 1 14 -17 16
-17 22 -3 5 14 8 15 28 2 13 -8 26 -12 31 -8 4 5 0 -6 -10 -24 -10 -18 -23
-29 -28 -26 -6 3 -7 1 -3 -5 7 -12 39 -2 48 15 3 5 3 2 2 -4 -4 -17 13 -17 20
0 4 6 4 2 2 -10 -2 -13 0 -23 5 -23 5 0 9 -5 9 -11 0 -5 -4 -8 -9 -5 -11 7 -9
-13 2 -32 5 -7 13 -10 18 -7 5 4 9 1 9 -5 0 -6 11 -15 25 -22 13 -6 22 -15 19
-20 -3 -5 0 -7 8 -6 7 2 12 -2 11 -9 -2 -7 3 -10 10 -7 7 2 19 -7 27 -21 7
-14 20 -25 27 -25 7 0 16 -7 19 -15 9 -22 196 -145 222 -145 12 0 22 -6 22
-14 0 -17 202 -121 349 -181 114 -45 257 -90 386 -120 82 -19 318 -55 324 -49
2 2 8 27 12 56 29 176 37 247 32 266 -3 12 -1 28 5 35 6 7 19 62 28 123 10 67
26 129 42 162 33 68 115 149 165 163 42 11 42 10 31 142 l-7 77 -308 0 -309 0
0 -30 0 -30 83 -1 c45 0 100 -3 122 -7 l40 -8 -1 -64 c-2 -148 -124 -282 -303
-332 -70 -19 -181 -23 -245 -8 -30 6 -42 5 -50 -4 -25 -30 -63 -46 -108 -46
-41 0 -54 5 -84 33 -28 26 -37 42 -41 78 -3 26 0 55 6 67 9 18 6 29 -19 70
-32 52 -55 139 -47 178 4 22 1 24 -32 24 -116 0 -241 -132 -270 -284 -5 -26
-14 -53 -21 -59 -10 -9 -11 -9 -6 1 4 7 2 12 -6 12 -9 0 -9 3 2 10 12 8 10 10
-8 10 -13 0 -20 -4 -17 -10 3 -6 -1 -7 -9 -4 -9 3 -16 14 -15 23 0 9 3 11 5 5
3 -7 13 -10 23 -7 13 3 18 14 17 41 0 20 -5 40 -11 44 -7 5 -6 8 1 8 7 0 14 7
18 15 7 20 -3 47 -16 39 -5 -3 -4 -13 4 -22 9 -12 6 -11 -10 2 -12 11 -22 28
-22 38 0 16 3 17 23 7 21 -11 21 -11 6 7 -9 10 -14 25 -11 33 3 10 0 11 -9 5
-11 -6 -10 -3 1 11 11 13 11 16 2 11 -10 -6 -13 -2 -12 15 4 44 0 60 -11 53
-9 -5 -10 2 -6 22 3 16 4 23 1 17 -3 -7 -10 -13 -15 -13 -10 0 -8 28 3 46 4 6
1 11 -7 11 -8 0 -12 -3 -10 -7 2 -4 -3 -7 -11 -7 -10 0 -11 4 -4 11 14 14 13
29 -2 19 -7 -4 -6 4 4 19 13 20 14 28 5 38 -9 9 -9 11 0 6 7 -4 9 1 6 14 -3
11 -10 20 -15 20 -5 0 -6 5 -3 10 3 6 1 10 -6 10 -8 0 -7 5 2 17 10 11 10 14
2 9 -12 -7 -19 20 -13 49 1 5 -7 2 -18 -8 -23 -21 -32 -22 -32 -1 0 9 -5 12
-12 8 -7 -4 -10 -3 -5 1 4 5 -1 18 -10 29 -18 21 -18 21 3 4 23 -20 39 -24 29
-8 -3 6 -1 10 5 10 7 0 10 -7 6 -15 -7 -19 3 -19 23 -1 9 7 56 18 105 25 50 6
94 15 99 20 6 6 15 31 22 57 l12 47 22 -46 c52 -107 197 -192 361 -211 l45 -6
-25 18 c-95 65 -177 170 -215 274 -19 53 -26 62 -58 73 -33 11 -37 11 -37 -5
0 -26 -38 -70 -61 -70 -10 0 -19 1 -19 3 0 1 6 35 14 76 12 63 12 78 0 107
-21 50 -18 123 7 164 20 32 21 44 16 151 -21 379 -178 735 -366 828 -96 48
-143 56 -318 56 -90 0 -163 0 -163 0 -1 0 -9 133 -20 295 -12 196 -24 309 -34
338 -13 37 -71 132 -80 132 -2 0 -22 -50 -45 -110z m609 -2194 c0 -11 -19 -15
-25 -6 -3 5 1 10 9 10 9 0 16 -2 16 -4z m115 -108 c13 -60 12 -76 -5 -66 -10
6 -15 25 -15 54 0 52 9 57 20 12z m-207 -135 c9 -16 9 -22 -1 -26 -8 -3 -13 7
-14 26 -3 32 -1 33 15 0z m-28 -6 c0 -8 -7 -14 -15 -14 -25 0 -17 17 13 26 1
1 2 -5 2 -12z m-28 -49 c-3 -14 -1 -19 6 -14 6 3 13 2 17 -4 10 -15 -25 -12
-41 4 -20 20 -18 36 5 36 15 0 18 -5 13 -22z m302 -20 c-3 -5 0 -16 7 -24 9
-11 9 -18 1 -26 -9 -9 -12 -8 -12 6 0 9 -4 14 -10 11 -6 -4 -10 11 -10 37 1
40 2 41 15 24 8 -10 12 -23 9 -28z m-344 22 c0 -5 -5 -10 -11 -10 -5 0 -7 5
-4 10 3 6 8 10 11 10 2 0 4 -4 4 -10z m266 -75 c-3 -8 -13 -14 -23 -14 -17 1
-17 2 0 6 9 2 17 14 18 26 0 12 3 16 6 9 3 -7 2 -19 -1 -27z m-46 -46 c0 -11
-4 -17 -10 -14 -5 3 -10 13 -10 21 0 8 5 14 10 14 6 0 10 -9 10 -21z m40 -47
c0 -13 -12 -22 -22 -16 -10 6 -1 24 13 24 5 0 9 -4 9 -8z m120 -82 c0 -5 -2
-10 -4 -10 -3 0 -8 5 -11 10 -3 6 -1 10 4 10 6 0 11 -4 11 -10z m54 -66 c3 -8
2 -12 -4 -9 -6 3 -10 10 -10 16 0 14 7 11 14 -7z m-130 -13 c3 -4 -4 -7 -14
-6 -27 2 -33 10 -10 12 11 1 22 -2 24 -6z m69 -13 c5 1 6 -2 2 -8 -4 -6 -15
-4 -31 6 -30 20 -32 29 -1 12 12 -7 26 -11 30 -10z m-43 -18 c8 -5 11 -10 5
-10 -5 0 -17 5 -25 10 -8 5 -10 10 -5 10 6 0 17 -5 25 -10z m81 -77 c13 -16
12 -17 -3 -4 -10 7 -18 15 -18 17 0 8 8 3 21 -13z m33 -8 c3 -8 1 -15 -4 -15
-6 0 -10 7 -10 15 0 8 2 15 4 15 2 0 6 -7 10 -15z"/>
<path d="M4825 3613 c-70 -25 -130 -62 -199 -123 -56 -49 -62 -52 -103 -47
-43 5 -43 4 -43 -28 0 -22 8 -41 24 -56 20 -20 22 -27 13 -52 -5 -16 -10 -82
-11 -146 -1 -105 1 -116 16 -113 28 4 58 -17 72 -50 12 -27 13 -21 19 79 3 59
13 129 22 156 17 46 17 47 60 47 91 0 176 25 386 112 l57 24 -34 94 c-18 51
-38 98 -44 104 -19 19 -180 18 -235 -1z"/>
<path d="M3325 3426 c-150 -29 -235 -90 -315 -224 -172 -290 -203 -575 -78
-717 l37 -42 -32 -23 c-18 -13 -63 -51 -100 -84 -60 -53 -74 -61 -110 -61 -23
0 -52 4 -64 8 -21 8 -23 5 -23 -28 0 -42 21 -88 50 -108 18 -13 19 -18 9 -43
-7 -17 -14 -102 -17 -201 l-4 -173 39 0 c51 0 64 -15 97 -109 38 -110 38 -111
197 -118 166 -7 170 -5 202 112 l23 80 52 3 c59 3 58 5 87 -101 27 -97 35
-101 189 -94 72 3 138 8 147 12 20 8 57 84 65 135 8 49 43 80 89 80 l32 0 6
68 c10 103 8 163 -7 245 -20 103 -50 160 -124 239 -67 71 -67 72 -2 81 112 16
227 94 270 182 76 156 32 395 -117 647 -70 117 -139 178 -243 212 -102 34
-249 43 -355 22z m389 -428 c5 -22 12 -28 34 -28 45 0 71 11 65 26 -3 8 -1 14
3 14 8 0 29 -47 48 -102 3 -10 14 -18 24 -18 34 0 56 -36 55 -90 -1 -69 -49
-139 -95 -140 -10 0 -18 -6 -18 -14 0 -45 -73 -158 -137 -210 l-32 -27 -54 35
c-99 64 -164 80 -320 83 -77 1 -141 4 -144 6 -2 3 -15 31 -27 62 -18 43 -31
60 -57 73 -38 19 -79 89 -79 134 0 52 38 99 73 90 4 -1 7 3 7 9 0 18 42 109
51 109 5 0 6 -6 3 -14 -7 -19 54 -31 221 -47 149 -13 330 -2 346 22 6 8 7 39
4 69 l-5 55 14 -35 c8 -19 17 -47 20 -62z m-78 -773 c45 -31 95 -212 109 -395
l7 -85 -164 -4 c-218 -5 -403 -5 -578 -1 -80 3 -156 1 -169 -4 l-24 -8 7 78
c8 92 20 153 41 210 l16 41 102 6 c120 6 179 21 330 83 247 102 280 110 323
79z m-450 -518 c14 -8 -9 -120 -32 -154 -14 -22 -21 -23 -134 -23 -115 0 -119
1 -139 26 -11 14 -25 50 -32 81 -19 82 -12 86 176 81 83 -2 155 -7 161 -11z
m523 7 c27 -6 31 -10 31 -41 0 -50 -38 -132 -64 -139 -11 -2 -70 -4 -131 -2
l-110 3 -22 65 c-33 98 -32 108 20 113 75 7 244 7 276 1z"/>
<path d="M208 3359 c-15 -55 -15 -60 0 -57 18 3 29 36 31 86 2 51 -13 37 -31
-29z"/>
<path d="M4015 3153 c11 -3 23 -10 27 -17 5 -7 8 -5 8 7 0 12 -7 17 -27 16
-22 -1 -23 -2 -8 -6z"/>
<path d="M4421 3113 c-10 -26 -10 -27 4 -9 8 11 15 23 15 28 0 15 -7 8 -19
-19z"/>
<path d="M4070 3081 c5 -11 15 -23 21 -27 6 -3 3 5 -6 20 -20 30 -30 35 -15 7z"/>
<path d="M4370 3048 c-19 -16 -26 -26 -15 -20 18 9 64 53 54 52 -2 -1 -20 -15
-39 -32z"/>
<path d="M4158 3008 c5 -5 16 -8 23 -6 8 3 3 7 -10 11 -17 4 -21 3 -13 -5z"/>
<path d="M4305 3010 c-16 -7 -17 -9 -3 -9 9 -1 20 4 23 9 7 11 7 11 -20 0z"/>
<path d="M4233 2993 c9 -2 23 -2 30 0 6 3 -1 5 -18 5 -16 0 -22 -2 -12 -5z"/>
<path d="M1020 2900 c0 -5 5 -10 11 -10 5 0 7 5 4 10 -3 6 -8 10 -11 10 -2 0
-4 -4 -4 -10z"/>
<path d="M4600 2657 l0 -56 -37 -6 c-175 -26 -306 -82 -403 -172 -142 -131
-201 -318 -171 -535 9 -63 8 -83 -4 -112 -8 -19 -15 -52 -15 -73 0 -42 37
-130 63 -152 38 -31 4 -104 -49 -107 -23 -1 -28 -5 -26 -20 2 -10 5 -23 5 -29
1 -5 5 -14 10 -20 44 -60 72 -91 104 -115 21 -16 46 -36 56 -44 9 -9 17 -14
17 -12 0 2 34 -7 75 -20 42 -13 95 -24 119 -24 24 0 56 -7 72 -14 28 -15 29
-17 29 -93 l0 -78 -95 -5 -95 -5 -3 -40 c-2 -21 2 -57 8 -80 12 -42 73 -135
90 -135 5 0 67 57 137 128 233 231 405 480 546 789 51 114 131 357 157 484
l23 107 -30 63 c-85 182 -274 299 -502 311 l-65 4 -4 54 c-5 73 -12 77 -12 7z
m220 -1252 c0 -42 -48 -99 -109 -130 -52 -26 -138 -17 -186 19 -40 31 -75 81
-75 109 0 16 15 17 185 17 160 0 185 -2 185 -15z"/>
<path d="M5233 2618 c-4 -7 -8 -33 -8 -58 0 -25 -4 -51 -8 -57 -9 -15 -1 -33
14 -33 6 0 9 25 8 58 -2 31 1 67 5 80 8 24 2 30 -11 10z"/>
<path d="M3910 2355 c0 -5 5 -17 10 -25 5 -8 10 -10 10 -5 0 6 -5 17 -10 25
-5 8 -10 11 -10 5z"/>
<path d="M3930 2303 c0 -6 8 -17 18 -24 16 -13 16 -13 2 6 -8 11 -16 22 -17
24 -2 2 -3 0 -3 -6z"/>
<path d="M3985 2210 c-10 -11 -14 -20 -9 -20 5 0 15 9 22 20 7 11 11 20 9 20
-2 0 -12 -9 -22 -20z"/>
<path d="M2473 1616 c-27 -8 -35 -19 -54 -70 -12 -34 -36 -83 -54 -111 -34
-52 -146 -165 -164 -165 -6 0 -11 -5 -11 -11 0 -12 70 -4 143 17 106 30 229
128 263 209 20 48 18 53 -18 57 -27 2 -37 10 -53 43 -19 38 -21 40 -52 31z"/>
<path d="M360 1562 c1 -4 12 -27 25 -52 l24 -45 1 41 c0 34 -4 43 -25 52 -14
6 -25 8 -25 4z"/>
<path d="M3897 1325 c-10 -14 -14 -25 -9 -25 5 0 16 10 24 22 14 21 15 21 14
2 -3 -27 -15 -46 -28 -38 -14 9 -28 -17 -19 -35 5 -9 7 -24 6 -33 -2 -10 3
-18 11 -18 8 0 13 6 12 12 -2 7 7 14 20 16 16 2 22 10 22 27 0 13 -4 26 -9 30
-5 3 -8 19 -6 35 5 37 -13 39 -38 5z m40 -64 c1 -12 -5 -21 -17 -24 -13 -3
-20 0 -20 9 0 8 -6 14 -12 14 -7 0 -2 6 12 13 28 15 33 14 37 -12z"/>
<path d="M3931 1211 c-9 -6 -7 -10 8 -14 12 -3 21 -1 21 3 0 14 -15 19 -29 11z"/>
<path d="M1060 1171 c0 -6 5 -13 10 -16 6 -3 10 1 10 9 0 9 -4 16 -10 16 -5 0
-10 -4 -10 -9z"/>
<path d="M3761 1163 c-73 -3 -86 -7 -102 -27 -10 -13 -43 -40 -73 -61 -53 -36
-56 -41 -56 -80 l0 -42 65 -1 c35 0 79 -5 97 -10 18 -6 61 -13 96 -17 l62 -6
0 126 c0 69 -1 124 -2 123 -2 -1 -41 -4 -87 -5z"/>
<path d="M730 1008 c0 -13 50 -58 51 -46 0 7 5 -2 10 -19 8 -29 13 -32 39 -30
17 2 33 7 38 12 4 5 2 5 -4 2 -14 -8 -77 50 -69 63 3 5 -4 7 -16 5 -13 -3 -28
0 -36 6 -7 7 -13 9 -13 7z"/>
<path d="M3041 924 c0 -11 3 -14 6 -6 3 7 2 16 -1 19 -3 4 -6 -2 -5 -13z"/>
<path d="M866 865 c-3 -9 -6 -18 -6 -19 0 -1 9 -2 20 -2 13 0 20 6 18 15 -4
21 -24 25 -32 6z"/>
<path d="M3061 834 c0 -11 3 -14 6 -6 3 7 2 16 -1 19 -3 4 -6 -2 -5 -13z"/>
<path d="M920 810 c0 -5 5 -10 11 -10 5 0 7 5 4 10 -3 6 -8 10 -11 10 -2 0 -4
-4 -4 -10z"/>
<path d="M3250 723 c-58 -25 -64 -33 -40 -58 20 -22 20 -23 5 -191 -16 -179
-18 -291 -3 -300 4 -3 5 -10 2 -16 -7 -11 28 -6 112 18 49 13 52 16 56 51 3
21 -3 124 -12 228 -17 189 -17 190 3 212 24 26 25 24 -30 52 -49 24 -47 24
-93 4z"/>
<path d="M3111 584 c0 -11 3 -14 6 -6 3 7 2 16 -1 19 -3 4 -6 -2 -5 -13z"/>
<path d="M3411 354 c0 -11 3 -14 6 -6 3 7 2 16 -1 19 -3 4 -6 -2 -5 -13z"/>
</g>
</svg>
