<?xml version="1.0" standalone="no"?>
<!DOCTYPE svg PUBLIC "-//W3C//DTD SVG 20010904//EN"
 "http://www.w3.org/TR/2001/REC-SVG-20010904/DTD/svg10.dtd">
<svg version="1.0" xmlns="http://www.w3.org/2000/svg"
 width="512.000000pt" height="512.000000pt" viewBox="0 0 512.000000 512.000000"
 preserveAspectRatio="xMidYMid meet">

<g transform="translate(0.000000,512.000000) scale(0.100000,-0.100000)"
fill="#000000" stroke="none">
<path d="M3111 5106 c-48 -27 -50 -42 -51 -337 l0 -277 -147 -4 c-141 -3 -151
-5 -215 -35 -93 -44 -151 -100 -196 -191 -35 -72 -37 -81 -37 -171 0 -87 3
-102 32 -163 44 -93 100 -151 191 -196 76 -37 76 -37 224 -41 l148 -3 0 -275
c0 -297 3 -318 55 -341 18 -9 123 -12 361 -12 354 0 379 3 400 47 5 10 11 115
14 234 5 213 5 216 32 256 41 63 90 88 169 88 54 0 72 -5 106 -27 22 -15 51
-44 64 -65 23 -36 24 -49 29 -253 3 -118 9 -223 14 -233 21 -44 46 -47 401
-47 365 0 379 2 403 55 9 19 12 260 12 975 0 715 -3 956 -12 975 -26 57 15 55
-1020 55 -772 -1 -958 -3 -977 -14z"/>
<path d="M936 4510 c-63 -16 -153 -70 -197 -117 -22 -24 -55 -74 -72 -111 -30
-64 -32 -74 -35 -214 l-4 -148 -274 0 c-190 0 -281 -4 -299 -12 -58 -26 -55
98 -55 -1947 0 -1436 3 -1886 12 -1906 26 -58 -98 -55 1948 -55 2046 0 1922
-3 1948 55 9 19 12 261 12 976 0 1032 2 991 -55 1017 -18 8 -109 12 -299 12
l-274 0 -3 148 c-4 148 -4 148 -41 224 -45 91 -103 147 -196 191 -61 29 -76
32 -163 32 -90 0 -99 -2 -171 -37 -91 -45 -147 -103 -191 -196 -30 -64 -32
-74 -35 -214 l-4 -148 -214 0 -214 0 0 275 c0 291 -4 321 -47 341 -10 5 -115
11 -233 14 -204 5 -217 6 -253 29 -21 13 -50 42 -65 64 -23 34 -27 52 -27 107
0 55 4 73 27 107 15 22 44 51 65 64 36 23 49 24 253 29 118 3 223 9 233 14 44
21 47 46 47 401 0 365 -2 379 -55 403 -18 8 -109 12 -299 12 l-274 0 -3 148
c-4 148 -4 148 -41 224 -68 136 -188 217 -336 224 -42 2 -94 -1 -116 -6z m204
-224 c21 -13 48 -42 61 -63 23 -36 24 -50 29 -238 3 -110 9 -208 14 -218 20
-43 50 -47 341 -47 l275 0 0 -214 0 -214 -162 -4 c-159 -3 -165 -4 -230 -35
-93 -44 -151 -100 -196 -191 -35 -72 -37 -81 -37 -171 0 -87 3 -102 32 -163
44 -93 100 -151 191 -196 l76 -37 163 -4 163 -3 0 -214 0 -214 -830 0 -830 0
0 830 0 830 275 0 c191 0 282 4 300 12 48 22 55 51 55 240 0 95 5 190 11 211
13 46 76 113 121 126 53 16 135 6 178 -23z m1860 -1860 c21 -13 48 -42 61 -63
23 -36 24 -50 29 -238 3 -110 9 -208 14 -218 20 -43 50 -47 341 -47 l275 0 0
-830 0 -830 -830 0 -830 0 0 214 0 214 163 3 163 4 76 37 c91 45 147 103 191
196 29 61 32 76 32 163 0 90 -2 99 -37 171 -45 91 -103 147 -196 191 -65 31
-71 32 -229 35 l-163 4 0 214 0 214 275 0 c191 0 282 4 300 12 48 22 55 51 55
240 0 95 5 190 11 211 13 46 76 113 121 126 53 16 135 6 178 -23z m-1140 -841
c0 -291 4 -321 47 -341 10 -5 115 -11 233 -14 204 -5 217 -6 253 -29 21 -13
50 -42 65 -64 23 -34 27 -52 27 -107 0 -55 -4 -73 -27 -107 -15 -22 -44 -51
-65 -64 -36 -23 -49 -24 -253 -29 -118 -3 -223 -9 -233 -14 -43 -20 -47 -50
-47 -341 l0 -275 -830 0 -830 0 0 830 0 830 830 0 830 0 0 -275z"/>
</g>
</svg>
