<?xml version="1.0" standalone="no"?>
<!DOCTYPE svg PUBLIC "-//W3C//DTD SVG 20010904//EN"
 "http://www.w3.org/TR/2001/REC-SVG-20010904/DTD/svg10.dtd">
<svg version="1.0" xmlns="http://www.w3.org/2000/svg"
 width="256.000000pt" height="256.000000pt" viewBox="0 0 256.000000 256.000000"
 preserveAspectRatio="xMidYMid meet">

<g transform="translate(0.000000,256.000000) scale(0.100000,-0.100000)"
fill="#000000" stroke="none">
<path d="M365 2546 c-67 -30 -95 -84 -95 -182 l0 -64 -52 0 c-91 -1 -169 -51
-202 -132 -14 -33 -16 -154 -16 -1020 0 -935 1 -985 19 -1023 10 -22 31 -52
47 -67 66 -61 -1 -58 1206 -58 777 0 1115 3 1143 11 52 15 119 82 134 134 15
54 15 1954 0 2008 -23 83 -111 146 -205 147 l-52 0 -3 79 c-4 85 -18 114 -73
155 -39 29 -133 29 -172 0 -55 -41 -69 -70 -73 -155 l-3 -79 -263 0 -263 0 -3
79 c-4 85 -18 114 -73 155 -43 32 -132 29 -178 -6 -49 -37 -68 -83 -68 -162
l0 -66 -264 0 -264 0 -3 78 c-4 68 -8 84 -33 116 -46 61 -123 82 -191 52z
m105 -106 c18 -18 20 -33 20 -180 0 -147 -2 -162 -20 -180 -11 -11 -29 -20
-40 -20 -11 0 -29 9 -40 20 -18 18 -20 33 -20 180 0 147 2 162 20 180 11 11
29 20 40 20 11 0 29 -9 40 -20z m850 0 c18 -18 20 -33 20 -180 0 -147 -2 -162
-20 -180 -11 -11 -29 -20 -40 -20 -11 0 -29 9 -40 20 -18 18 -20 33 -20 180 0
147 2 162 20 180 11 11 29 20 40 20 11 0 29 -9 40 -20z m850 0 c18 -18 20 -33
20 -180 0 -147 -2 -162 -20 -180 -11 -11 -29 -20 -40 -20 -11 0 -29 9 -40 20
-18 18 -20 33 -20 180 0 147 2 162 20 180 11 11 29 20 40 20 11 0 29 -9 40
-20z m-1898 -310 c4 -74 19 -105 72 -144 43 -32 132 -29 178 6 47 36 68 83 68
152 l0 56 265 0 265 0 0 -56 c0 -69 21 -116 68 -152 46 -35 135 -38 178 -6 53
39 68 70 72 144 l4 70 264 0 264 0 0 -56 c0 -69 21 -116 68 -152 46 -35 135
-38 178 -6 53 39 68 70 72 144 l4 70 40 0 c21 0 52 -7 68 -15 55 -28 60 -53
60 -280 l0 -205 -488 0 c-366 0 -491 -3 -500 -12 -15 -15 -15 -61 0 -76 9 -9
134 -12 500 -12 l488 0 0 -605 c0 -522 -2 -610 -15 -635 -33 -63 33 -60 -1165
-60 -1198 0 -1132 -3 -1165 60 -13 25 -15 113 -15 635 l0 605 488 0 c366 0
491 3 500 12 15 15 15 61 0 76 -9 9 -134 12 -500 12 l-488 0 0 205 c0 225 5
251 58 279 15 9 46 15 68 16 l42 0 4 -70z m1008 -1929 c898 0 1112 2 1143 13
35 13 37 12 37 -6 0 -32 -29 -77 -60 -93 -25 -13 -164 -15 -1120 -15 -956 0
-1095 2 -1120 15 -31 16 -60 61 -60 93 0 18 2 19 38 6 30 -11 244 -13 1142
-13z"/>
<path d="M1246 1684 c-31 -30 -9 -84 34 -84 43 0 65 54 34 84 -8 9 -24 16 -34
16 -10 0 -26 -7 -34 -16z"/>
<path d="M1240 1423 c-32 -13 -54 -42 -101 -134 l-48 -97 -88 -12 c-116 -15
-149 -26 -173 -57 -51 -65 -39 -106 62 -210 l81 -82 -18 -110 c-20 -127 -14
-160 39 -192 47 -29 81 -23 187 31 l99 50 100 -50 c109 -55 139 -60 186 -31
53 32 59 65 39 192 l-18 110 81 82 c83 85 99 116 87 165 -15 63 -54 83 -198
102 l-88 12 -48 97 c-27 53 -58 104 -69 114 -21 19 -86 31 -112 20z m105 -203
c38 -75 63 -113 78 -119 12 -5 68 -14 125 -21 57 -7 105 -18 109 -23 3 -5 -36
-51 -86 -101 l-92 -92 21 -123 c11 -68 18 -126 15 -130 -4 -3 -58 21 -120 54
l-114 60 -114 -60 c-64 -33 -118 -57 -122 -54 -3 4 3 62 15 129 24 140 32 118
-84 230 -44 42 -76 81 -73 87 3 5 52 16 109 23 57 7 113 16 125 21 15 6 40 44
78 119 30 60 60 110 65 110 5 0 35 -50 65 -110z"/>
</g>
</svg>
